<?xml version="1.0" encoding="UTF-8"?>
<svg version="1.1" xmlns="http://www.w3.org/2000/svg" width="512" height="512">
<path d="M0 0 C4.69991034 4.39425979 9.04272414 9.15197683 12.61425781 14.50927734 C16.36704373 13.2583487 17.17372571 11.76070316 19.55175781 8.63427734 C40.83457237 -17.84948225 73.67241277 -34.14174552 107.14160156 -37.88525391 C110.30042008 -38.1616966 113.4465267 -38.35538568 116.61425781 -38.49072266 C117.40445312 -38.53197266 118.19464844 -38.57322266 119.00878906 -38.61572266 C154.90605975 -39.59418319 188.97286328 -24.28071782 214.89135742 -0.1394043 C239.11834789 23.03693518 256.47410882 58.04109147 257.73852539 91.83007812 C257.82165713 95.82812284 257.86085998 99.82298866 257.86425781 103.82177734 C257.86493256 104.53514252 257.8656073 105.24850769 257.86630249 105.98348999 C257.84917145 117.40412748 257.18010655 128.35440148 254.61425781 139.50927734 C254.44796875 140.26354004 254.28167969 141.01780273 254.11035156 141.79492188 C240.20085875 203.60201076 197.89953782 254.20870725 154.23925781 298.00927734 C153.31185791 298.9413501 152.38445801 299.87342285 151.42895508 300.83374023 C146.86293024 305.38908239 142.24838184 309.81649106 137.35253906 314.01611328 C134.9486143 316.08105764 132.62936712 318.23404418 130.30175781 320.38427734 C125.81412349 324.4768517 121.20495553 328.36198569 116.47753906 332.17333984 C113.96080426 334.22655596 111.48980381 336.32383725 109.02954102 338.4440918 C101.87165856 344.59670881 94.41138037 350.26280794 86.82128906 355.86865234 C84.52202464 357.57784005 82.23860431 359.30652009 79.95800781 361.04052734 C63.89160925 373.23708275 47.39899802 384.79150867 30.55175781 395.88427734 C29.73707031 396.42584473 28.92238281 396.96741211 28.08300781 397.52539062 C22.00756973 401.47877961 17.17459605 404.30238891 9.64941406 403.07080078 C6.05848229 402.08002066 3.18372779 400.19670541 0.11425781 398.13427734 C-0.57224854 397.68874512 -1.25875488 397.24321289 -1.96606445 396.78417969 C-4.11876563 395.37750293 -6.254123 393.94766712 -8.38574219 392.50927734 C-9.05202637 392.06197266 -9.71831055 391.61466797 -10.40478516 391.15380859 C-15.10095575 387.9897796 -19.74832389 384.75858699 -24.38574219 381.50927734 C-25.06217773 381.0376416 -25.73861328 380.56600586 -26.43554688 380.08007812 C-54.04780759 360.82192841 -80.97974247 340.47920168 -105.87402344 317.77490234 C-107.94647775 315.90550343 -110.03994605 314.06913939 -112.14746094 312.23974609 C-116.48826522 308.44895613 -120.69631778 304.52845595 -124.88574219 300.57177734 C-125.5934375 299.90726562 -126.30113281 299.24275391 -127.03027344 298.55810547 C-133.74889589 292.22638724 -140.32906992 285.83639574 -146.34667969 278.82958984 C-148.42105184 276.46909739 -150.54998653 274.170232 -152.69506836 271.87426758 C-158.53073595 265.62183159 -164.09672903 259.23683317 -169.38574219 252.50927734 C-169.86624023 251.90132324 -170.34673828 251.29336914 -170.84179688 250.66699219 C-199.05087293 214.85640498 -222.41765868 174.14039474 -229.38574219 128.50927734 C-229.57652344 127.32462891 -229.76730469 126.13998047 -229.96386719 124.91943359 C-230.73894008 118.36280135 -230.63015192 111.72823284 -230.63574219 105.13427734 C-230.63641693 104.41996552 -230.63709167 103.70565369 -230.63778687 102.96969604 C-230.6211877 91.90084515 -230.08867227 81.2810922 -227.38574219 70.50927734 C-227.21945313 69.81946777 -227.05316406 69.1296582 -226.88183594 68.41894531 C-221.48768043 46.60757764 -211.23491386 26.37277143 -196.38574219 9.50927734 C-195.65484375 8.65720703 -194.92394531 7.80513672 -194.17089844 6.92724609 C-184.8063055 -3.78690154 -174.45706101 -12.07867014 -162.38574219 -19.49072266 C-161.79164551 -19.85584961 -161.19754883 -20.22097656 -160.58544922 -20.59716797 C-107.78696368 -52.35543503 -44.10084321 -39.64532012 0 0 Z " fill="#EB4884" transform="translate(242.3857421875,73.49072265625)"/>
</svg>
